<svg xmlns="http://www.w3.org/2000/svg" width="30" height="30" viewBox="0 0 30 30">
    <g fill="none" fill-rule="evenodd">
        <circle cx="15" cy="15" r="15" fill="#4D93D9"/>
        <path fill="#FFF" d="M12.635 12.167v7.608h-2.532v-7.608h2.532zm.167-2.353c0 .73-.55 1.315-1.433 1.315h-.016c-.85 0-1.4-.585-1.4-1.315 0-.746.566-1.314 1.433-1.314.866 0 1.4.568 1.416 1.314zm8.964 5.599v4.362h-2.532v-4.07c0-1.023-.366-1.72-1.283-1.72-.7 0-1.116.47-1.299.924-.067.163-.083.39-.083.617v4.249h-2.533s.034-6.894 0-7.607h2.533v1.077c.336-.518.938-1.256 2.282-1.256 1.666 0 2.915 1.087 2.915 3.424z"/>
    </g>
</svg>
