<svg xmlns="http://www.w3.org/2000/svg" width="18" height="19" viewBox="0 0 18 19">
    <g fill="#FFF" fill-rule="nonzero">
        <path d="M17.18 18.738h-2c0-3.374-2.83-6.118-6.311-6.118s-6.31 2.745-6.31 6.118h-2c0-4.478 3.729-8.118 8.311-8.118 4.581 0 8.31 3.64 8.31 8.118z"/>
        <path d="M8.87 10.97a5.492 5.492 0 0 1-5.484-5.485A5.49 5.49 0 0 1 8.87 0a5.491 5.491 0 0 1 5.486 5.485A5.491 5.491 0 0 1 8.87 10.97zm0-8.97a3.488 3.488 0 0 0-3.485 3.485A3.488 3.488 0 0 0 8.87 8.97a3.489 3.489 0 0 0 3.486-3.485A3.49 3.49 0 0 0 8.87 2z"/>
    </g>
</svg>
