<svg xmlns="http://www.w3.org/2000/svg" xmlns:xlink="http://www.w3.org/1999/xlink" width="30" height="30" viewBox="0 0 30 30">
    <defs>
        <path id="prefix__a" d="M5.535 14.447c6.642 0 10.274-5.559 10.274-10.379 0-.158 0-.315-.01-.472.706-.515 1.316-1.156 1.801-1.888-.658.295-1.358.489-2.073.574.753-.456 1.317-1.172 1.587-2.018-.709.425-1.484.725-2.293.886C13.453-.32 11.166-.39 9.711.99c-.937.891-1.335 2.22-1.044 3.486C5.764 4.33 3.06 2.945 1.225.666.267 2.333.757 4.465 2.343 5.536c-.574-.018-1.137-.174-1.639-.457v.046c0 1.737 1.213 3.232 2.897 3.576-.532.147-1.09.168-1.63.062.473 1.487 1.829 2.504 3.373 2.534C4.066 12.312 2.486 12.863.86 12.86c-.287 0-.574-.017-.86-.052 1.652 1.07 3.573 1.638 5.535 1.636"/>
    </defs>
    <g fill="none" fill-rule="evenodd">
        <circle cx="15" cy="15" r="15" fill="#17B9F9"/>
        <g transform="translate(7 8)">
            <mask id="prefix__b" fill="#fff">
                <use xlink:href="#prefix__a"/>
            </mask>
            <g fill="#FFF" mask="url(#prefix__b)">
                <path d="M0 0H21.12V21.297H0z" transform="translate(-.903 -3.55)"/>
            </g>
        </g>
    </g>
</svg>
