<svg xmlns="http://www.w3.org/2000/svg" width="20" height="20" viewBox="0 0 20 20">
    <g fill="#17B9F9" fill-rule="evenodd">
        <g>
            <path fill-rule="nonzero" d="M10.959 14.4H3.653C1.635 14.4 0 12.788 0 10.8V3.6C0 1.612 1.635 0 3.653 0v1.8c-.968 0-1.76.743-1.823 1.682l-.004.118v7.2c0 .954.754 1.735 1.707 1.796l.12.004h7.306c.968 0 1.76-.743 1.822-1.682l.004-.118h1.827c0 1.988-1.636 3.6-3.653 3.6z" transform="translate(2.312 -2.6) translate(0 5.4)"/>
            <path d="M3.653 0h.287c.497 0 .9.403.9.9s-.403.9-.9.9h-.287V0zM12.785 10.8v-.257c0-.504.41-.913.914-.913s.913.409.913.913v.257h-1.827z" transform="translate(2.312 -2.6) translate(0 5.4)"/>
        </g>
        <g transform="translate(2.312 -2.6) rotate(-135 9.166 6.956)">
            <path d="M1.242 5.457c.352-.351.922-.351 1.273 0l5.175 5.176-.381.381c-.493.493-1.29.493-1.782 0L1.242 6.73c-.351-.351-.351-.921 0-1.273z"/>
            <path d="M11.594 5.457c-.352-.352-.922-.352-1.273 0l-5.176 5.175.382.382c.492.492 1.29.492 1.782 0l4.285-4.285c.351-.351.351-.92 0-1.272z"/>
            <rect width="1.826" height="9.81" x="5.539" y=".781" rx=".913"/>
        </g>
    </g>
</svg>
